<svg aria-hidden="true" style="position: absolute; width: 0; height: 0; overflow: hidden;" version="1.1" xmlns="http://www.w3.org/2000/svg" xmlns:xlink="http://www.w3.org/1999/xlink">
<defs>
<symbol id="icon-facebook" viewBox="0 0 32 32">
<path d="M31.333 15.427c0-8.52-6.865-15.427-15.331-15.427-8.471 0.002-15.335 6.907-15.335 15.429 0 7.698 5.607 14.080 12.936 15.237v-10.78h-3.89v-4.458h3.894v-3.402c0-3.865 2.29-6 5.791-6 1.679 0 3.432 0.301 3.432 0.301v3.795h-1.934c-1.903 0-2.497 1.19-2.497 2.411v2.894h4.251l-0.678 4.458h-3.574v10.78c7.328-1.158 12.936-7.539 12.936-15.238z"></path>
</symbol>
<symbol id="icon-heart" viewBox="0 0 33 32">
<path d="M3.167 11.2c-0-1.933 0.776-3.785 2.156-5.139s3.245-2.097 5.178-2.061c2.29-0.012 4.475 0.959 6 2.667 1.525-1.708 3.71-2.679 6-2.667 1.933-0.036 3.798 0.707 5.178 2.061s2.156 3.206 2.156 5.139c0 7.141-8.505 12.533-13.333 16.8-4.817-4.303-13.333-9.653-13.333-16.8z"></path>
</symbol>
<symbol id="icon-instagram" viewBox="0 0 32 32">
<path d="M16.667 1.333c-3.98 0-4.481 0.018-6.044 0.088-1.564 0.073-2.629 0.319-3.562 0.682-0.979 0.368-1.865 0.946-2.598 1.692-0.746 0.733-1.323 1.619-1.692 2.598-0.363 0.931-0.611 1.998-0.682 3.557-0.070 1.567-0.088 2.066-0.088 6.052 0 3.982 0.018 4.481 0.088 6.044 0.073 1.562 0.319 2.627 0.682 3.56 0.376 0.964 0.876 1.782 1.692 2.598 0.814 0.816 1.632 1.318 2.596 1.692 0.935 0.363 1.998 0.611 3.56 0.682 1.566 0.070 2.064 0.088 6.048 0.088s4.481-0.018 6.046-0.088c1.56-0.073 2.629-0.319 3.562-0.682 0.978-0.368 1.864-0.946 2.596-1.692 0.816-0.816 1.316-1.634 1.692-2.598 0.361-0.933 0.609-1.998 0.682-3.56 0.070-1.564 0.088-2.062 0.088-6.046s-0.018-4.482-0.088-6.048c-0.073-1.56-0.321-2.627-0.682-3.559-0.369-0.979-0.946-1.865-1.692-2.598-0.732-0.747-1.619-1.324-2.598-1.692-0.935-0.363-2.002-0.611-3.562-0.682-1.566-0.070-2.063-0.088-6.048-0.088h0.004zM15.352 3.977h1.316c3.916 0 4.38 0.013 5.925 0.084 1.43 0.064 2.207 0.304 2.724 0.504 0.684 0.266 1.173 0.585 1.687 1.098s0.831 1.001 1.096 1.687c0.202 0.515 0.44 1.293 0.504 2.723 0.071 1.546 0.086 2.009 0.086 5.924s-0.015 4.38-0.086 5.925c-0.064 1.43-0.304 2.206-0.504 2.723-0.235 0.637-0.611 1.213-1.098 1.685-0.513 0.513-1.001 0.831-1.687 1.096-0.513 0.202-1.291 0.44-2.723 0.506-1.546 0.070-2.009 0.086-5.925 0.086s-4.382-0.017-5.927-0.086c-1.43-0.066-2.206-0.304-2.723-0.506-0.637-0.235-1.213-0.609-1.687-1.096-0.488-0.473-0.864-1.049-1.1-1.687-0.2-0.515-0.44-1.293-0.504-2.723-0.070-1.546-0.084-2.009-0.084-5.927 0-3.916 0.015-4.378 0.084-5.924 0.066-1.43 0.304-2.207 0.506-2.724 0.266-0.684 0.585-1.173 1.098-1.687s1.001-0.83 1.687-1.096c0.517-0.202 1.293-0.44 2.723-0.506 1.353-0.062 1.877-0.081 4.611-0.083v0.004zM24.497 6.412c-0.231 0-0.46 0.046-0.673 0.134s-0.408 0.218-0.571 0.382c-0.163 0.163-0.293 0.357-0.381 0.571s-0.134 0.442-0.134 0.674c0 0.231 0.046 0.46 0.134 0.674s0.218 0.408 0.381 0.571c0.163 0.163 0.357 0.293 0.571 0.382s0.442 0.134 0.673 0.134c0.467 0 0.915-0.185 1.245-0.515s0.515-0.778 0.515-1.245-0.185-0.914-0.515-1.245c-0.33-0.33-0.778-0.516-1.245-0.516zM16.669 8.469c-0.999-0.016-1.991 0.168-2.919 0.539s-1.772 0.924-2.484 1.625-1.277 1.537-1.663 2.458c-0.386 0.922-0.585 1.911-0.585 2.91s0.199 1.988 0.585 2.91c0.386 0.922 0.951 1.757 1.663 2.458s1.556 1.253 2.484 1.625c0.928 0.372 1.92 0.555 2.919 0.539 1.977-0.031 3.863-0.838 5.251-2.247s2.165-3.307 2.165-5.285-0.778-3.876-2.165-5.285c-1.387-1.409-3.273-2.216-5.251-2.247zM16.669 11.111c1.297 0 2.54 0.515 3.457 1.432s1.432 2.161 1.432 3.457-0.515 2.54-1.432 3.457c-0.917 0.917-2.161 1.432-3.457 1.432s-2.541-0.515-3.457-1.432c-0.917-0.917-1.432-2.161-1.432-3.457s0.515-2.54 1.432-3.457c0.917-0.917 2.161-1.432 3.457-1.432z"></path>
</symbol>
<symbol id="icon-joinus-arrow" viewBox="0 0 38 32">
<path d="M0 16c0-0.606 0.253-1.187 0.703-1.616s1.060-0.669 1.697-0.669h27.803l-10.304-9.809c-0.451-0.429-0.704-1.011-0.704-1.618s0.253-1.189 0.704-1.618c0.451-0.429 1.062-0.67 1.699-0.67s1.248 0.241 1.699 0.67l14.398 13.712c0.223 0.212 0.401 0.464 0.522 0.742s0.183 0.575 0.183 0.876-0.062 0.598-0.183 0.876c-0.121 0.278-0.298 0.53-0.522 0.742l-14.398 13.712c-0.451 0.429-1.062 0.67-1.699 0.67s-1.248-0.241-1.699-0.67c-0.451-0.429-0.704-1.011-0.704-1.618s0.253-1.189 0.704-1.618l10.304-9.808h-27.803c-0.636 0-1.247-0.241-1.697-0.669s-0.703-1.010-0.703-1.616z"></path>
</symbol>
<symbol id="icon-locate" viewBox="0 0 32 32">
<path d="M16 28c-1.684-1.436-3.245-3.011-4.667-4.708-2.133-2.548-4.667-6.343-4.667-9.959-0.002-3.777 2.272-7.182 5.761-8.627s7.505-0.646 10.175 2.026c1.755 1.747 2.739 4.125 2.731 6.601 0 3.616-2.533 7.411-4.667 9.959-1.422 1.697-2.983 3.271-4.667 4.708zM16 9.333c-1.429 0-2.75 0.762-3.464 2s-0.715 2.762 0 4c0.714 1.238 2.035 2 3.464 2 2.209 0 4-1.791 4-4s-1.791-4-4-4z"></path>
</symbol>
<symbol id="icon-twitter" viewBox="0 0 38 32">
<path d="M13.457 30.4c13.284 0 20.55-11.083 20.55-20.677 0-0.31 0-0.625-0.013-0.935 1.415-1.031 2.636-2.308 3.606-3.77-1.321 0.587-2.722 0.973-4.156 1.148 1.51-0.909 2.642-2.339 3.184-4.025-1.419 0.846-2.972 1.441-4.592 1.757-1.088-1.167-2.529-1.941-4.098-2.2s-3.18 0.009-4.582 0.765c-1.402 0.755-2.518 1.955-3.174 3.414s-0.817 3.094-0.456 4.654c-2.872-0.145-5.681-0.896-8.245-2.205s-4.828-3.145-6.642-5.391c-0.921 1.602-1.202 3.497-0.786 5.3s1.498 3.379 3.026 4.408c-1.145-0.039-2.265-0.349-3.269-0.904v0.1c0.002 1.678 0.579 3.304 1.634 4.603s2.523 2.191 4.156 2.526c-0.62 0.172-1.26 0.258-1.903 0.255-0.453 0.001-0.906-0.041-1.351-0.126 0.462 1.444 1.36 2.707 2.57 3.612s2.671 1.405 4.177 1.432c-2.56 2.024-5.721 3.122-8.976 3.117-0.574 0.002-1.147-0.031-1.716-0.1 3.303 2.121 7.14 3.247 11.057 3.245z"></path>
</symbol>
</defs>
</svg>
